<svg width="180" height="24" viewBox="0 0 180 24" fill="none" xmlns="http://www.w3.org/2000/svg">
<path d="M8.85571 24C7.9927 24 7.21794 23.9549 6.53146 23.8648C5.86458 23.7746 5.12906 23.6056 4.32488 23.3577C3.42264 23.0873 2.67731 22.738 2.08889 22.3099C1.50047 21.8592 1.01012 21.2394 0.61784 20.4507C0.205947 19.662 0 18.7268 0 17.6451V8.01127C0 3.59437 2.9519 1.38592 8.85571 1.38592C10.366 1.38592 12.3862 1.6338 14.9164 2.12958V6.08451C12.6412 5.45352 10.6406 5.13803 8.91455 5.13803C8.18884 5.13803 7.62003 5.16056 7.20814 5.20563C6.81586 5.2507 6.40396 5.36338 5.97246 5.54366C5.0506 5.90423 4.58967 6.70423 4.58967 7.94366V17.2732C4.58967 19.2563 6.1686 20.2479 9.32645 20.2479C10.6798 20.2479 12.5824 19.9211 15.0341 19.2676V23.2563C12.9354 23.7521 10.876 24 8.85571 24Z" fill="black"/>
<path d="M8.85571 24C7.9927 24 7.21794 23.9549 6.53146 23.8648C5.86458 23.7746 5.12906 23.6056 4.32488 23.3577C3.42264 23.0873 2.67731 22.738 2.08889 22.3099C1.50047 21.8592 1.01012 21.2394 0.61784 20.4507C0.205947 19.662 0 18.7268 0 17.6451V8.01127C0 3.59437 2.9519 1.38592 8.85571 1.38592C10.366 1.38592 12.3862 1.6338 14.9164 2.12958V6.08451C12.6412 5.45352 10.6406 5.13803 8.91455 5.13803C8.18884 5.13803 7.62003 5.16056 7.20814 5.20563C6.81586 5.2507 6.40396 5.36338 5.97246 5.54366C5.0506 5.90423 4.58967 6.70423 4.58967 7.94366V17.2732C4.58967 19.2563 6.1686 20.2479 9.32645 20.2479C10.6798 20.2479 12.5824 19.9211 15.0341 19.2676V23.2563C12.9354 23.7521 10.876 24 8.85571 24Z" fill="url(#paint0_linear_14030_769)"/>
<path d="M17.9079 1.38592H22.2034V5.37465H17.9079V1.38592ZM17.9079 7.30141H22.2034V23.662H17.9079V7.30141Z" fill="black"/>
<path d="M17.9079 1.38592H22.2034V5.37465H17.9079V1.38592ZM17.9079 7.30141H22.2034V23.662H17.9079V7.30141Z" fill="url(#paint1_linear_14030_769)"/>
<path d="M26.0936 7.30141H30.3303V9.29578C30.6637 7.74085 32.1838 6.96338 34.8905 6.96338C36.7146 6.96338 37.9895 7.34648 38.7152 8.11268C39.4606 8.85634 39.8332 10.0394 39.8332 11.662V23.662H35.5378V12.3042C35.5378 11.6732 35.4789 11.2 35.3612 10.8845C35.2632 10.569 35.0474 10.3437 34.714 10.2085C34.4002 10.0732 33.9098 10.0056 33.2429 10.0056C32.3995 10.0056 31.7817 10.0732 31.3894 10.2085C30.9971 10.3211 30.7323 10.5352 30.595 10.8507C30.4577 11.1662 30.3891 11.6507 30.3891 12.3042V23.662H26.0936V7.30141Z" fill="black"/>
<path d="M26.0936 7.30141H30.3303V9.29578C30.6637 7.74085 32.1838 6.96338 34.8905 6.96338C36.7146 6.96338 37.9895 7.34648 38.7152 8.11268C39.4606 8.85634 39.8332 10.0394 39.8332 11.662V23.662H35.5378V12.3042C35.5378 11.6732 35.4789 11.2 35.3612 10.8845C35.2632 10.569 35.0474 10.3437 34.714 10.2085C34.4002 10.0732 33.9098 10.0056 33.2429 10.0056C32.3995 10.0056 31.7817 10.0732 31.3894 10.2085C30.9971 10.3211 30.7323 10.5352 30.595 10.8507C30.4577 11.1662 30.3891 11.6507 30.3891 12.3042V23.662H26.0936V7.30141Z" fill="url(#paint2_linear_14030_769)"/>
<path d="M50.7404 24C45.6996 24 43.1792 22.231 43.1792 18.693V12.8113C43.1792 10.7606 43.748 9.27324 44.8856 8.3493C46.0428 7.42535 47.8179 6.96338 50.2108 6.96338C52.4664 6.96338 54.114 7.41409 55.1535 8.31549C56.2127 9.19437 56.7422 10.693 56.7422 12.8113V16.8H47.5041V18.2873C47.5041 19.2338 47.7983 19.9099 48.3867 20.3155C48.9751 20.7211 50.0343 20.9239 51.5642 20.9239C52.9764 20.9239 54.5651 20.6873 56.3303 20.2141V23.3577C54.5847 23.7859 52.7214 24 50.7404 24ZM52.6527 13.9944V11.6282C52.6527 11.0873 52.4566 10.6817 52.0643 10.4113C51.6916 10.1408 51.0542 10.0056 50.1519 10.0056C49.1124 10.0056 48.4161 10.1408 48.0631 10.4113C47.6904 10.7042 47.5041 11.1099 47.5041 11.6282V13.9944H52.6527Z" fill="black"/>
<path d="M50.7404 24C45.6996 24 43.1792 22.231 43.1792 18.693V12.8113C43.1792 10.7606 43.748 9.27324 44.8856 8.3493C46.0428 7.42535 47.8179 6.96338 50.2108 6.96338C52.4664 6.96338 54.114 7.41409 55.1535 8.31549C56.2127 9.19437 56.7422 10.693 56.7422 12.8113V16.8H47.5041V18.2873C47.5041 19.2338 47.7983 19.9099 48.3867 20.3155C48.9751 20.7211 50.0343 20.9239 51.5642 20.9239C52.9764 20.9239 54.5651 20.6873 56.3303 20.2141V23.3577C54.5847 23.7859 52.7214 24 50.7404 24ZM52.6527 13.9944V11.6282C52.6527 11.0873 52.4566 10.6817 52.0643 10.4113C51.6916 10.1408 51.0542 10.0056 50.1519 10.0056C49.1124 10.0056 48.4161 10.1408 48.0631 10.4113C47.6904 10.7042 47.5041 11.1099 47.5041 11.6282V13.9944H52.6527Z" fill="url(#paint3_linear_14030_769)"/>
<path d="M60.0254 7.30141H64.3209V9.29578C64.5955 7.74085 65.9979 6.96338 68.5281 6.96338C69.8618 6.96338 70.872 7.1662 71.5585 7.57183C72.2449 7.95493 72.7059 8.56338 72.9412 9.39718C73.1766 8.54085 73.6277 7.92113 74.2946 7.53803C74.9811 7.15493 76.0108 6.96338 77.3838 6.96338C78.6195 6.96338 79.5708 7.13239 80.2376 7.47042C80.9045 7.78592 81.3654 8.28169 81.6204 8.95775C81.895 9.6338 82.0323 10.5352 82.0323 11.662V23.662H77.7369V12.338C77.7369 11.6169 77.6976 11.1099 77.6192 10.8169C77.5407 10.5014 77.3642 10.2873 77.0896 10.1746C76.8346 10.062 76.3835 10.0056 75.7362 10.0056C74.9321 10.0056 74.3534 10.062 74.0004 10.1746C73.667 10.2873 73.4414 10.5014 73.3237 10.8169C73.2256 11.1099 73.1766 11.6169 73.1766 12.338V23.662H68.8812V12.338C68.8812 11.6169 68.8419 11.1099 68.7635 10.8169C68.685 10.5014 68.5085 10.2873 68.2339 10.1746C67.9789 10.062 67.5278 10.0056 66.8805 10.0056C66.0764 10.0056 65.4977 10.062 65.1447 10.1746C64.8112 10.2873 64.5857 10.5014 64.468 10.8169C64.3699 11.1099 64.3209 11.6169 64.3209 12.338V23.662H60.0254V7.30141Z" fill="black"/>
<path d="M60.0254 7.30141H64.3209V9.29578C64.5955 7.74085 65.9979 6.96338 68.5281 6.96338C69.8618 6.96338 70.872 7.1662 71.5585 7.57183C72.2449 7.95493 72.7059 8.56338 72.9412 9.39718C73.1766 8.54085 73.6277 7.92113 74.2946 7.53803C74.9811 7.15493 76.0108 6.96338 77.3838 6.96338C78.6195 6.96338 79.5708 7.13239 80.2376 7.47042C80.9045 7.78592 81.3654 8.28169 81.6204 8.95775C81.895 9.6338 82.0323 10.5352 82.0323 11.662V23.662H77.7369V12.338C77.7369 11.6169 77.6976 11.1099 77.6192 10.8169C77.5407 10.5014 77.3642 10.2873 77.0896 10.1746C76.8346 10.062 76.3835 10.0056 75.7362 10.0056C74.9321 10.0056 74.3534 10.062 74.0004 10.1746C73.667 10.2873 73.4414 10.5014 73.3237 10.8169C73.2256 11.1099 73.1766 11.6169 73.1766 12.338V23.662H68.8812V12.338C68.8812 11.6169 68.8419 11.1099 68.7635 10.8169C68.685 10.5014 68.5085 10.2873 68.2339 10.1746C67.9789 10.062 67.5278 10.0056 66.8805 10.0056C66.0764 10.0056 65.4977 10.062 65.1447 10.1746C64.8112 10.2873 64.5857 10.5014 64.468 10.8169C64.3699 11.1099 64.3209 11.6169 64.3209 12.338V23.662H60.0254V7.30141Z" fill="url(#paint4_linear_14030_769)"/>
<path d="M89.8282 24C88.4944 24 87.4941 23.8648 86.8273 23.5944C86.18 23.3014 85.7191 22.7944 85.4445 22.0732C85.1895 21.3296 85.062 20.2254 85.062 18.7606C85.062 17.4535 85.1993 16.4282 85.4739 15.6845C85.7681 14.9408 86.229 14.4113 86.8567 14.0958C87.5039 13.7577 88.3866 13.5887 89.5046 13.5887H94.3296V12.4732C94.3296 11.7746 94.2413 11.2563 94.0648 10.9183C93.9079 10.5803 93.6039 10.3437 93.1528 10.2085C92.7213 10.0732 92.0642 10.0056 91.1816 10.0056C89.9655 10.0056 88.2983 10.1408 86.18 10.4113V7.30141C87.7295 7.07606 89.5438 6.96338 91.6229 6.96338C93.447 6.96338 94.8494 7.12113 95.8301 7.43662C96.8304 7.75211 97.5463 8.29296 97.9778 9.05916C98.4093 9.82535 98.6251 10.9408 98.6251 12.4056V23.662H94.4179V22.1746C94.0844 22.8282 93.6333 23.2901 93.0645 23.5606C92.4957 23.8535 91.4169 24 89.8282 24ZM91.5052 20.9239C92.3682 20.9239 92.986 20.8901 93.3587 20.8225C93.6333 20.7775 93.8196 20.7099 93.9177 20.6197C94.0354 20.5296 94.1335 20.3831 94.2119 20.1803C94.2904 20.0225 94.3296 19.7859 94.3296 19.4704V16.293H91.3875C90.7206 16.293 90.2499 16.3493 89.9753 16.462C89.7007 16.5521 89.5144 16.7549 89.4163 17.0704C89.3182 17.3634 89.2692 17.893 89.2692 18.6592C89.2692 19.4028 89.3182 19.9211 89.4163 20.2141C89.5144 20.507 89.7007 20.6986 89.9753 20.7887C90.2695 20.8789 90.7795 20.9239 91.5052 20.9239Z" fill="black"/>
<path d="M89.8282 24C88.4944 24 87.4941 23.8648 86.8273 23.5944C86.18 23.3014 85.7191 22.7944 85.4445 22.0732C85.1895 21.3296 85.062 20.2254 85.062 18.7606C85.062 17.4535 85.1993 16.4282 85.4739 15.6845C85.7681 14.9408 86.229 14.4113 86.8567 14.0958C87.5039 13.7577 88.3866 13.5887 89.5046 13.5887H94.3296V12.4732C94.3296 11.7746 94.2413 11.2563 94.0648 10.9183C93.9079 10.5803 93.6039 10.3437 93.1528 10.2085C92.7213 10.0732 92.0642 10.0056 91.1816 10.0056C89.9655 10.0056 88.2983 10.1408 86.18 10.4113V7.30141C87.7295 7.07606 89.5438 6.96338 91.6229 6.96338C93.447 6.96338 94.8494 7.12113 95.8301 7.43662C96.8304 7.75211 97.5463 8.29296 97.9778 9.05916C98.4093 9.82535 98.6251 10.9408 98.6251 12.4056V23.662H94.4179V22.1746C94.0844 22.8282 93.6333 23.2901 93.0645 23.5606C92.4957 23.8535 91.4169 24 89.8282 24ZM91.5052 20.9239C92.3682 20.9239 92.986 20.8901 93.3587 20.8225C93.6333 20.7775 93.8196 20.7099 93.9177 20.6197C94.0354 20.5296 94.1335 20.3831 94.2119 20.1803C94.2904 20.0225 94.3296 19.7859 94.3296 19.4704V16.293H91.3875C90.7206 16.293 90.2499 16.3493 89.9753 16.462C89.7007 16.5521 89.5144 16.7549 89.4163 17.0704C89.3182 17.3634 89.2692 17.893 89.2692 18.6592C89.2692 19.4028 89.3182 19.9211 89.4163 20.2141C89.5144 20.507 89.7007 20.6986 89.9753 20.7887C90.2695 20.8789 90.7795 20.9239 91.5052 20.9239Z" fill="url(#paint5_linear_14030_769)"/>
<path d="M111.672 24C110.573 24 109.603 23.9437 108.759 23.831C107.916 23.7183 107.082 23.5268 106.258 23.2563C105.376 22.9859 104.65 22.6254 104.081 22.1746C103.512 21.7014 103.052 21.093 102.698 20.3493C102.345 19.5606 102.169 18.6592 102.169 17.6451V8.51831C102.169 7.41409 102.365 6.42254 102.757 5.54366C103.15 4.64225 103.679 3.93239 104.346 3.41408C104.974 2.94085 105.719 2.53521 106.582 2.19718C107.465 1.85916 108.328 1.6338 109.171 1.52113C109.877 1.43099 110.73 1.38592 111.731 1.38592C114.437 1.38592 117.026 1.62254 119.498 2.09578V6.08451C117.223 5.45352 114.634 5.13803 111.731 5.13803C108.416 5.13803 106.759 6.24225 106.759 8.4507V17.2732C106.759 18.3549 107.2 19.1211 108.083 19.5718C108.985 20.0225 110.338 20.2479 112.143 20.2479C113.104 20.2479 114.133 20.0789 115.232 19.7408V14.6366H112.113V11.1887H119.616V22.5803C118.635 22.9859 117.38 23.3239 115.85 23.5944C114.339 23.8648 112.947 24 111.672 24Z" fill="black"/>
<path d="M111.672 24C110.573 24 109.603 23.9437 108.759 23.831C107.916 23.7183 107.082 23.5268 106.258 23.2563C105.376 22.9859 104.65 22.6254 104.081 22.1746C103.512 21.7014 103.052 21.093 102.698 20.3493C102.345 19.5606 102.169 18.6592 102.169 17.6451V8.51831C102.169 7.41409 102.365 6.42254 102.757 5.54366C103.15 4.64225 103.679 3.93239 104.346 3.41408C104.974 2.94085 105.719 2.53521 106.582 2.19718C107.465 1.85916 108.328 1.6338 109.171 1.52113C109.877 1.43099 110.73 1.38592 111.731 1.38592C114.437 1.38592 117.026 1.62254 119.498 2.09578V6.08451C117.223 5.45352 114.634 5.13803 111.731 5.13803C108.416 5.13803 106.759 6.24225 106.759 8.4507V17.2732C106.759 18.3549 107.2 19.1211 108.083 19.5718C108.985 20.0225 110.338 20.2479 112.143 20.2479C113.104 20.2479 114.133 20.0789 115.232 19.7408V14.6366H112.113V11.1887H119.616V22.5803C118.635 22.9859 117.38 23.3239 115.85 23.5944C114.339 23.8648 112.947 24 111.672 24Z" fill="url(#paint6_linear_14030_769)"/>
<path d="M128.091 24C126.267 24 124.982 23.6282 124.237 22.8845C123.511 22.1183 123.148 20.9239 123.148 19.3014V7.30141H127.444V18.6254C127.444 19.2563 127.493 19.7296 127.591 20.0451C127.709 20.3606 127.924 20.5859 128.238 20.7211C128.572 20.8563 129.072 20.9239 129.739 20.9239C130.582 20.9239 131.2 20.8676 131.592 20.7549C131.984 20.6197 132.249 20.3944 132.387 20.0789C132.524 19.7634 132.592 19.2789 132.592 18.6254V7.30141H136.888V23.662H132.651V21.6676C132.338 23.2225 130.817 24 128.091 24Z" fill="black"/>
<path d="M128.091 24C126.267 24 124.982 23.6282 124.237 22.8845C123.511 22.1183 123.148 20.9239 123.148 19.3014V7.30141H127.444V18.6254C127.444 19.2563 127.493 19.7296 127.591 20.0451C127.709 20.3606 127.924 20.5859 128.238 20.7211C128.572 20.8563 129.072 20.9239 129.739 20.9239C130.582 20.9239 131.2 20.8676 131.592 20.7549C131.984 20.6197 132.249 20.3944 132.387 20.0789C132.524 19.7634 132.592 19.2789 132.592 18.6254V7.30141H136.888V23.662H132.651V21.6676C132.338 23.2225 130.817 24 128.091 24Z" fill="url(#paint7_linear_14030_769)"/>
<path d="M140.763 1.38592H145.059V5.37465H140.763V1.38592ZM140.763 7.30141H145.059V23.662H140.763V7.30141Z" fill="black"/>
<path d="M140.763 1.38592H145.059V5.37465H140.763V1.38592ZM140.763 7.30141H145.059V23.662H140.763V7.30141Z" fill="url(#paint8_linear_14030_769)"/>
<path d="M154.421 24C152.735 24 151.489 23.8648 150.685 23.5944C149.881 23.3014 149.322 22.7606 149.008 21.9718C148.694 21.1831 148.537 19.9549 148.537 18.2873V11.8986C148.537 10.0958 148.979 8.82254 149.861 8.07887C150.763 7.33521 152.215 6.96338 154.216 6.96338C155.157 6.96338 155.893 7.03099 156.422 7.1662C156.971 7.27887 157.413 7.49296 157.746 7.80845C158.079 8.10141 158.423 8.54084 158.776 9.12676V0H163.071V23.662H158.923V21.8028C158.57 22.4563 158.246 22.9183 157.952 23.1887C157.677 23.4366 157.285 23.6282 156.775 23.7634C156.246 23.9211 155.461 24 154.421 24ZM155.51 20.9239C156.471 20.9239 157.177 20.8676 157.628 20.7549C158.079 20.6423 158.383 20.4394 158.54 20.1465C158.697 19.831 158.776 19.369 158.776 18.7606V12.169C158.776 11.6056 158.688 11.1775 158.511 10.8845C158.354 10.569 158.06 10.3437 157.628 10.2085C157.216 10.0732 156.589 10.0056 155.745 10.0056C154.843 10.0056 154.196 10.0732 153.804 10.2085C153.411 10.3211 153.147 10.5352 153.009 10.8507C152.892 11.1437 152.833 11.6394 152.833 12.338V18.5915C152.833 19.2225 152.892 19.707 153.009 20.0451C153.147 20.3606 153.402 20.5859 153.774 20.7211C154.147 20.8563 154.725 20.9239 155.51 20.9239Z" fill="black"/>
<path d="M154.421 24C152.735 24 151.489 23.8648 150.685 23.5944C149.881 23.3014 149.322 22.7606 149.008 21.9718C148.694 21.1831 148.537 19.9549 148.537 18.2873V11.8986C148.537 10.0958 148.979 8.82254 149.861 8.07887C150.763 7.33521 152.215 6.96338 154.216 6.96338C155.157 6.96338 155.893 7.03099 156.422 7.1662C156.971 7.27887 157.413 7.49296 157.746 7.80845C158.079 8.10141 158.423 8.54084 158.776 9.12676V0H163.071V23.662H158.923V21.8028C158.57 22.4563 158.246 22.9183 157.952 23.1887C157.677 23.4366 157.285 23.6282 156.775 23.7634C156.246 23.9211 155.461 24 154.421 24ZM155.51 20.9239C156.471 20.9239 157.177 20.8676 157.628 20.7549C158.079 20.6423 158.383 20.4394 158.54 20.1465C158.697 19.831 158.776 19.369 158.776 18.7606V12.169C158.776 11.6056 158.688 11.1775 158.511 10.8845C158.354 10.569 158.06 10.3437 157.628 10.2085C157.216 10.0732 156.589 10.0056 155.745 10.0056C154.843 10.0056 154.196 10.0732 153.804 10.2085C153.411 10.3211 153.147 10.5352 153.009 10.8507C152.892 11.1437 152.833 11.6394 152.833 12.338V18.5915C152.833 19.2225 152.892 19.707 153.009 20.0451C153.147 20.3606 153.402 20.5859 153.774 20.7211C154.147 20.8563 154.725 20.9239 155.51 20.9239Z" fill="url(#paint9_linear_14030_769)"/>
<path d="M173.998 24C168.957 24 166.437 22.231 166.437 18.693V12.8113C166.437 10.7606 167.006 9.27324 168.143 8.3493C169.301 7.42535 171.076 6.96338 173.469 6.96338C175.724 6.96338 177.372 7.41409 178.411 8.31549C179.47 9.19437 180 10.693 180 12.8113V16.8H170.762V18.2873C170.762 19.2338 171.056 19.9099 171.644 20.3155C172.233 20.7211 173.292 20.9239 174.822 20.9239C176.234 20.9239 177.823 20.6873 179.588 20.2141V23.3577C177.842 23.7859 175.979 24 173.998 24ZM175.91 13.9944V11.6282C175.91 11.0873 175.714 10.6817 175.322 10.4113C174.949 10.1408 174.312 10.0056 173.41 10.0056C172.37 10.0056 171.674 10.1408 171.321 10.4113C170.948 10.7042 170.762 11.1099 170.762 11.6282V13.9944H175.91Z" fill="black"/>
<path d="M173.998 24C168.957 24 166.437 22.231 166.437 18.693V12.8113C166.437 10.7606 167.006 9.27324 168.143 8.3493C169.301 7.42535 171.076 6.96338 173.469 6.96338C175.724 6.96338 177.372 7.41409 178.411 8.31549C179.47 9.19437 180 10.693 180 12.8113V16.8H170.762V18.2873C170.762 19.2338 171.056 19.9099 171.644 20.3155C172.233 20.7211 173.292 20.9239 174.822 20.9239C176.234 20.9239 177.823 20.6873 179.588 20.2141V23.3577C177.842 23.7859 175.979 24 173.998 24ZM175.91 13.9944V11.6282C175.91 11.0873 175.714 10.6817 175.322 10.4113C174.949 10.1408 174.312 10.0056 173.41 10.0056C172.37 10.0056 171.674 10.1408 171.321 10.4113C170.948 10.7042 170.762 11.1099 170.762 11.6282V13.9944H175.91Z" fill="url(#paint10_linear_14030_769)"/>
<defs>
<linearGradient id="paint0_linear_14030_769" x1="-1.64775" y1="-5.07042" x2="164.045" y2="68.7512" gradientUnits="userSpaceOnUse">
<stop offset="0.2" stop-color="#6A5DC2"/>
<stop offset="0.8" stop-color="#DC5DFC"/>
</linearGradient>
<linearGradient id="paint1_linear_14030_769" x1="-1.64775" y1="-5.07042" x2="164.045" y2="68.7512" gradientUnits="userSpaceOnUse">
<stop offset="0.2" stop-color="#6A5DC2"/>
<stop offset="0.8" stop-color="#DC5DFC"/>
</linearGradient>
<linearGradient id="paint2_linear_14030_769" x1="-1.64775" y1="-5.07042" x2="164.045" y2="68.7512" gradientUnits="userSpaceOnUse">
<stop offset="0.2" stop-color="#6A5DC2"/>
<stop offset="0.8" stop-color="#DC5DFC"/>
</linearGradient>
<linearGradient id="paint3_linear_14030_769" x1="-1.64775" y1="-5.07042" x2="164.045" y2="68.7512" gradientUnits="userSpaceOnUse">
<stop offset="0.2" stop-color="#6A5DC2"/>
<stop offset="0.8" stop-color="#DC5DFC"/>
</linearGradient>
<linearGradient id="paint4_linear_14030_769" x1="-1.64775" y1="-5.07042" x2="164.045" y2="68.7512" gradientUnits="userSpaceOnUse">
<stop offset="0.2" stop-color="#6A5DC2"/>
<stop offset="0.8" stop-color="#DC5DFC"/>
</linearGradient>
<linearGradient id="paint5_linear_14030_769" x1="-1.64775" y1="-5.07042" x2="164.045" y2="68.7512" gradientUnits="userSpaceOnUse">
<stop offset="0.2" stop-color="#6A5DC2"/>
<stop offset="0.8" stop-color="#DC5DFC"/>
</linearGradient>
<linearGradient id="paint6_linear_14030_769" x1="-1.64775" y1="-5.07042" x2="164.045" y2="68.7512" gradientUnits="userSpaceOnUse">
<stop offset="0.2" stop-color="#6A5DC2"/>
<stop offset="0.8" stop-color="#DC5DFC"/>
</linearGradient>
<linearGradient id="paint7_linear_14030_769" x1="-1.64775" y1="-5.07042" x2="164.045" y2="68.7512" gradientUnits="userSpaceOnUse">
<stop offset="0.2" stop-color="#6A5DC2"/>
<stop offset="0.8" stop-color="#DC5DFC"/>
</linearGradient>
<linearGradient id="paint8_linear_14030_769" x1="-1.64775" y1="-5.07042" x2="164.045" y2="68.7512" gradientUnits="userSpaceOnUse">
<stop offset="0.2" stop-color="#6A5DC2"/>
<stop offset="0.8" stop-color="#DC5DFC"/>
</linearGradient>
<linearGradient id="paint9_linear_14030_769" x1="-1.64775" y1="-5.07042" x2="164.045" y2="68.7512" gradientUnits="userSpaceOnUse">
<stop offset="0.2" stop-color="#6A5DC2"/>
<stop offset="0.8" stop-color="#DC5DFC"/>
</linearGradient>
<linearGradient id="paint10_linear_14030_769" x1="-1.64775" y1="-5.07042" x2="164.045" y2="68.7512" gradientUnits="userSpaceOnUse">
<stop offset="0.2" stop-color="#6A5DC2"/>
<stop offset="0.8" stop-color="#DC5DFC"/>
</linearGradient>
</defs>
</svg>
